Coordinates
version=1
nRows=10
nColumns=40
inDegrees=yes

Units are S.I. units (second, meters, Newtons, ...)
Angles are in degrees.

endheader
time	pelvis_tilt	pelvis_list	pelvis_rotation	pelvis_tx	pelvis_ty	pelvis_tz	hip_flexion_r	hip_adduction_r	hip_rotation_r	knee_angle_r	knee_angle_r_beta	ankle_angle_r	subtalar_angle_r	mtp_angle_r	hip_flexion_l	hip_adduction_l	hip_rotation_l	knee_angle_l	knee_angle_l_beta	ankle_angle_l	subtalar_angle_l	mtp_angle_l	lumbar_extension	lumbar_bending	lumbar_rotation	arm_flex_r	arm_add_r	arm_rot_r	elbow_flex_r	pro_sup_r	wrist_flex_r	wrist_dev_r	arm_flex_l	arm_add_l	arm_rot_l	elbow_flex_l	pro_sup_l	wrist_flex_l	wrist_dev_l
     25.06000000	     -6.38481814	     -6.41728335	      1.14379339	      1.01298010	      0.92755667	      0.49596841	     11.03026398	      5.10156503	    -16.09756326	     13.26975374	     13.26975374	     10.65063004	     -0.14402101	     -3.40864518	     39.94260249	    -11.97065574	      5.40518273	     65.50276329	     65.50276329	      5.62425615	    -18.79150893	     13.16898589	    -11.58889663	      5.75230861	      4.77499969	     18.56970469	    -14.56589917	     -1.61118701	     44.69326636	     45.67715740	      0.00000000	      0.00000000	      2.48641176	     -6.52059414	     -1.16099489	     26.24873138	     47.01355099	      0.00000000	      0.00000000
     25.07171429	     -6.38884287	     -6.35354394	      1.31849082	      1.01256241	      0.92763675	      0.49631480	     10.20888372	      5.16670985	    -16.03018810	     12.73587331	     12.73587331	     10.95183273	     -0.08386225	     -3.38407854	     40.74577494	    -11.89747871	      4.91042750	     62.96256293	     62.96256293	      6.41355123	    -18.95468086	     13.73392400	    -11.63469746	      5.62325681	      4.65276530	     20.64685467	    -14.43719435	     -1.67632519	     46.24567995	     45.63357742	      0.00000000	      0.00000000	      1.10473559	     -6.66317994	     -1.18496698	     25.32894467	     46.98248557	      0.00000000	      0.00000000
     25.08342857	     -6.43971781	     -6.26671806	      1.49246683	      1.01213695	      0.92757275	      0.49640423	      9.43865491	      5.18644495	    -15.96574744	     12.20470059	     12.20470059	     11.24765534	     -0.02002667	     -3.37701146	     41.43013441	    -11.68402545	      4.48412758	     60.13286016	     60.13286016	      7.19379759	    -19.01639850	     14.43277885	    -11.63653505	      5.50152623	      4.58741748	     22.63320876	    -14.38219569	     -1.65910915	     47.91021796	     45.58188332	      0.00000000	      0.00000000	     -0.20098771	     -6.78823378	     -1.18715119	     24.52011151	     46.95014899	      0.00000000	      0.00000000
     25.09514286	     -6.49767130	     -6.23120042	      1.70139523	      1.01175608	      0.92734141	      0.49619769	      8.66496526	      5.23678712	    -15.98518099	     11.65707339	     11.65707339	     11.52763443	      0.10936902	     -3.39679836	     41.98472470	    -11.32702209	      4.32374683	     57.10456050	     57.10456050	      7.97744158	    -19.00632958	     15.23239600	    -11.63846142	      5.49062480	      4.42392636	     24.53341135	    -14.39438519	     -1.46638928	     50.08415165	     45.50356173	      0.00000000	      0.00000000	     -1.54085802	     -6.89801065	     -1.18686923	     23.86824484	     46.91063802	      0.00000000	      0.00000000
     25.10685714	     -6.59436845	     -6.12445190	      1.88376561	      1.01140869	      0.92699758	      0.49575054	      7.97104429	      5.16646697	    -16.08645780	     11.20198588	     11.20198588	     11.82855437	      0.39221528	     -3.53116739	     42.36941414	    -10.79530721	      4.27408376	     53.83663883	     53.83663883	      8.64696426	    -18.88418232	     15.98856038	    -11.65497421	      5.39891404	      4.70169016	     25.61884659	    -15.08845044	     -0.46696152	     53.75763464	     45.33677675	      0.00000000	      0.00000000	     -2.82924749	     -7.03465027	     -1.16127107	     24.00078036	     46.82183816	      0.00000000	      0.00000000
     25.11857143	     -6.66995858	     -5.99694012	      2.06078233	      1.01118115	      0.92661278	      0.49509008	      7.24567314	      5.07268356	    -16.10314307	     10.74635950	     10.74635950	     12.13430433	      0.54641482	     -3.57051422	     42.50758553	    -10.14821032	      4.41251199	     50.34401069	     50.34401069	      9.04919910	    -18.65562961	     16.03493924	    -11.62217469	      5.29904751	      4.62941565	     27.49347659	    -15.02051734	     -0.51097780	     55.42811611	     45.29069483	      0.00000000	      0.00000000	     -4.05274486	     -7.15622800	     -1.10545567	     23.60443535	     46.77560583	      0.00000000	      0.00000000
     25.13028571	     -6.74164560	     -5.92560184	      2.23503483	      1.01110029	      0.92605571	      0.49428126	      6.50180839	      5.00716067	    -16.34057069	     10.30147992	     10.30147992	     12.49935942	      1.07974970	     -3.66238292	     42.44984463	     -9.53828801	      4.69313519	     46.67715982	     46.67715982	      8.89560979	    -18.25271728	     14.59771699	    -11.64893953	      5.29935139	      4.78181621	     28.72293122	    -15.50637839	     -0.00777081	     58.86362267	     45.16796777	      0.00000000	      0.00000000	     -5.54540126	     -7.35287836	     -0.85782895	     24.45693674	     46.63653098	      0.00000000	      0.00000000
     25.14200000	     -6.80633034	     -5.81414156	      2.38582724	      1.01119070	      0.92545383	      0.49333686	      5.75318035	      4.91012174	    -16.38697226	      9.86841419	      9.86841419	     12.80300040	      1.27372367	     -3.70133041	     42.24288564	     -8.86868172	      5.11528445	     43.04853616	     43.04853616	      9.26456496	    -17.45798426	     14.54638209	    -11.59107161	      5.23279513	      4.74068244	     30.46642024	    -15.40442943	     -0.08545761	     60.45594368	     45.12713965	      0.00000000	      0.00000000	     -6.70733325	     -7.43251166	     -0.76309917	     24.20194317	     46.58642791	      0.00000000	      0.00000000
     25.15371429	     -6.82683592	     -5.81125553	      2.53543164	      1.01156082	      0.92466141	      0.49225870	      4.91280159	      4.89831773	    -16.75628953	      9.40892171	      9.40892171	     13.20814815	      2.04049185	     -3.70360315	     41.85435638	     -8.38946349	      5.52509528	     39.41731530	     39.41731530	      9.08477838	    -16.38158695	     12.91593335	    -11.63110317	      5.33130832	      4.88952251	     31.52878691	    -15.82772035	      0.26906177	     64.02221206	     45.01457980	      0.00000000	      0.00000000	     -8.26811366	     -7.63476389	     -0.36089523	     25.47730790	     46.42538420	      0.00000000	      0.00000000
     25.16542857	     -6.80018406	     -5.74834530	      2.61876184	      1.01222373	      0.92386849	      0.49118229	      4.02786182	      4.85965811	    -16.78985432	      8.98876993	      8.98876993	     13.60276781	      2.24403688	     -3.74743289	     41.31812645	     -7.97842249	      5.71622087	     36.01608785	     36.01608785	      9.47428170	    -14.89987522	     12.97306167	    -11.55796515	      5.35398452	      4.86025490	     33.14455212	    -15.61034321	      0.19340613	     65.57971336	     44.97624192	      0.00000000	      0.00000000	     -9.40493840	     -7.71306258	     -0.21979352	     25.27563036	     46.36972178	      0.00000000	      0.00000000
